<svg xmlns:dc="http://purl.org/dc/elements/1.1/" xmlns:cc="http://creativecommons.org/ns#" xmlns:rdf="http://www.w3.org/1999/02/22-rdf-syntax-ns#" xmlns:svg="http://www.w3.org/2000/svg" xmlns="http://www.w3.org/2000/svg" xmlns:xlink="http://www.w3.org/1999/xlink" id="svg756369" viewBox="0 0 1024 768" height="768px" width="1024px" version="1.1">
  <metadata id="metadata756375">
    <rdf:rdf>
      <cc:work rdf:about="">
        <dc:format>image/svg+xml</dc:format>
        <dc:type rdf:resource="http://purl.org/dc/dcmitype/StillImage"></dc:type>
      </cc:work>
    </rdf:rdf>
  </metadata>
  <defs id="defs756373"></defs>
  <linearGradient spreadMethod="pad" y2="30%" x2="-10%" y1="120%" x1="30%" id="3d_gradient2-logo-89e5948f-06c8-4697-bcf4-755bb1b7ad75">
    <stop id="stop756350" stop-opacity="1" stop-color="#ffffff" offset="0%"></stop>
    <stop id="stop756352" stop-opacity="1" stop-color="#000000" offset="100%"></stop>
  </linearGradient>
  <linearGradient gradientTransform="rotate(-30)" spreadMethod="pad" y2="30%" x2="-10%" y1="120%" x1="30%" id="3d_gradient3-logo-89e5948f-06c8-4697-bcf4-755bb1b7ad75">
    <stop id="stop756355" stop-opacity="1" stop-color="#ffffff" offset="0%"></stop>
    <stop id="stop756357" stop-opacity="1" stop-color="#cccccc" offset="50%"></stop>
    <stop id="stop756359" stop-opacity="1" stop-color="#000000" offset="100%"></stop>
  </linearGradient>
  <g id="logo-group">
    <image xlink:href="" id="container" x="272" y="144" width="480" height="480" style="display: none;" transform="translate(0 0)"></image>
    <g id="logo-center" transform="translate(0 0)">
      <image xlink:href="" id="icon_container" x="0" y="0" style="display: none;"></image>
      <g id="slogan" style="font-style:normal;font-weight:400;font-size:32px;line-height:1;font-family:'Roboto Slab';font-variant-ligatures:none;text-align:center;text-anchor:middle" transform="translate(0 0)">
        <path id="path756377" style="font-style:normal;font-weight:400;font-size:32px;line-height:1;font-family:'Roboto Slab';font-variant-ligatures:none;text-align:center;text-anchor:middle" d="m 481.67187,-20.984375 v 4.078125 h 3.20313 v 2.28125 h -3.20313 v 10.265625 q 0,1.1875 0.48438,1.671875 0.5,0.484375 1.3125,0.484375 0.40625,0 0.90625,-0.0625 0.51562,-0.078125 0.85937,-0.15625 l 0.42188,2.109375 q -0.4375,0.28125 -1.28125,0.453125 -0.84375,0.1875 -1.6875,0.1875 -1.875,0 -2.98438,-1.125 -1.10937,-1.140625 -1.10937,-3.5625 V -14.625 h -2.67188 v -2.28125 h 2.67188 v -4.078125 z" stroke-width="0" stroke-linejoin="miter" stroke-miterlimit="2" fill="#5061f5" stroke="#5061f5" transform="translate(0 391.95587500000005) translate(400.45312 29.015625) scale(2) translate(-475.92187 20.984375)"></path>
        <path id="path756379" style="font-style:normal;font-weight:400;font-size:32px;line-height:1;font-family:'Roboto Slab';font-variant-ligatures:none;text-align:center;text-anchor:middle" d="m 495.76562,0.328125 q -3.53125,0 -5.625,-2.34375 Q 488.0625,-4.375 488.0625,-8.125 v -0.6875 q 0,-3.609375 2.14062,-6 2.15625,-2.40625 5.09375,-2.40625 3.40625,0 5.15625,2.0625 1.76563,2.0625 1.76563,5.5 v 1.921875 H 491.25 l -0.0469,0.078125 q 0.0469,2.4375 1.23438,4.015625 1.1875,1.5625 3.32812,1.5625 1.5625,0 2.73438,-0.4375 1.1875,-0.453125 2.04687,-1.234375 l 1.20313,2 q -0.90625,0.875 -2.40625,1.484375 -1.48438,0.59375 -3.57813,0.59375 z m -0.46875,-15.125 q -1.54687,0 -2.64062,1.3125 -1.09375,1.296875 -1.34375,3.265625 l 0.0312,0.07813 h 7.79687 v -0.40625 q 0,-1.8125 -0.96875,-3.03125 -0.96875,-1.21875 -2.875,-1.21875 z" stroke-width="0" stroke-linejoin="miter" stroke-miterlimit="2" fill="#5061f5" stroke="#5061f5" transform="translate(0 391.95587500000005) translate(444.73438 36.546875) scale(2) translate(-488.0625 17.21875)"></path>
        <path id="path756381" style="font-style:normal;font-weight:400;font-size:32px;line-height:1;font-family:'Roboto Slab';font-variant-ligatures:none;text-align:center;text-anchor:middle" d="m 518.17187,-11.59375 h -2.3125 l -0.5,-2.03125 q -0.5625,-0.53125 -1.42187,-0.84375 -0.84375,-0.328125 -1.92188,-0.328125 -1.64062,0 -2.4375,0.71875 -0.79687,0.71875 -0.79687,1.734375 0,1 0.70312,1.578125 0.70313,0.578125 2.85938,1.03125 3.20312,0.6875 4.76562,1.875 1.5625,1.171875 1.5625,3.15625 0,2.25 -1.82812,3.640625 -1.8125,1.390625 -4.75,1.390625 -1.92188,0 -3.45313,-0.4375 -1.53125,-0.453125 -2.73437,-1.296875 l -0.0156,-3.859375 h 2.3125 L 508.78125,-3 q 0.53125,0.484375 1.4375,0.703125 0.92187,0.21875 1.875,0.21875 1.64062,0 2.5625,-0.65625 0.9375,-0.671875 0.9375,-1.75 0,-1.015625 -0.78125,-1.671875 -0.76563,-0.65625 -2.92188,-1.140625 Q 508.8125,-7.96875 507.25,-9.125 q -1.5625,-1.15625 -1.5625,-3.125 0,-2.0625 1.75,-3.515625 1.76562,-1.453125 4.57812,-1.453125 1.92188,0 3.45313,0.5 1.53125,0.5 2.54687,1.390625 z" stroke-width="0" stroke-linejoin="miter" stroke-miterlimit="2" fill="#5061f5" stroke="#5061f5" transform="translate(0 391.95587500000005) translate(499.98438 36.546875) scale(2) translate(-505.6875 17.21875)"></path>
        <path id="path756383" style="font-style:normal;font-weight:400;font-size:32px;line-height:1;font-family:'Roboto Slab';font-variant-ligatures:none;text-align:center;text-anchor:middle" d="m 526.92187,-20.984375 v 4.078125 h 3.20313 v 2.28125 h -3.20313 v 10.265625 q 0,1.1875 0.48438,1.671875 0.5,0.484375 1.3125,0.484375 0.40625,0 0.90625,-0.0625 0.51562,-0.078125 0.85937,-0.15625 l 0.42188,2.109375 q -0.4375,0.28125 -1.28125,0.453125 -0.84375,0.1875 -1.6875,0.1875 -1.875,0 -2.98438,-1.125 -1.10937,-1.140625 -1.10937,-3.5625 V -14.625 h -2.67188 v -2.28125 h 2.67188 v -4.078125 z" stroke-width="0" stroke-linejoin="miter" stroke-miterlimit="2" fill="#5061f5" stroke="#5061f5" transform="translate(0 391.95587500000005) translate(550.95312 29.015625) scale(2) translate(-521.17187 20.984375)"></path>
        <path id="path756385" style="font-style:normal;font-weight:400;font-size:32px;line-height:1;font-family:'Roboto Slab';font-variant-ligatures:none;text-align:center;text-anchor:middle" d="m 541.01562,0.328125 q -3.53125,0 -5.625,-2.34375 Q 533.3125,-4.375 533.3125,-8.125 v -0.6875 q 0,-3.609375 2.14062,-6 2.15625,-2.40625 5.09375,-2.40625 3.40625,0 5.15625,2.0625 1.76563,2.0625 1.76563,5.5 v 1.921875 H 536.5 l -0.0469,0.078125 q 0.0469,2.4375 1.23438,4.015625 1.1875,1.5625 3.32812,1.5625 1.5625,0 2.73438,-0.4375 1.1875,-0.453125 2.04687,-1.234375 l 1.20313,2 q -0.90625,0.875 -2.40625,1.484375 -1.48438,0.59375 -3.57813,0.59375 z m -0.46875,-15.125 q -1.54687,0 -2.64062,1.3125 -1.09375,1.296875 -1.34375,3.265625 l 0.0312,0.07813 h 7.79687 v -0.40625 q 0,-1.8125 -0.96875,-3.03125 -0.96875,-1.21875 -2.875,-1.21875 z" stroke-width="0" stroke-linejoin="miter" stroke-miterlimit="2" fill="#5061f5" stroke="#5061f5" transform="translate(0 391.95587500000005) translate(595.23438 36.546875) scale(2) translate(-533.3125 17.21875)"></path>
      </g>
      <g id="title" style="font-style:normal;font-weight:800;font-size:72px;line-height:1;font-family:'Montserrat ExtraBold Alt1';font-variant-ligatures:none;text-align:center;text-anchor:middle" transform="translate(0 0)">
        <path id="path756388" style="font-style:normal;font-weight:800;font-size:72px;line-height:1;font-family:'Montserrat ExtraBold Alt1';font-variant-ligatures:none;text-align:center;text-anchor:middle" d="m 446.28875,-1.584 -3.384,-9.576 c -1.224,0.864 -2.592,1.224 -4.176,1.224 -1.296,0 -2.304,-0.36 -3.024,-1.152 -0.72,-0.792 -1.08,-1.872 -1.08,-3.312 v -12.96 h 8.928 v -10.224 h -8.928 v -10.152 h -13.68 v 10.152 h -5.688 v 10.224 h 5.688 v 13.104 c 0,4.968 1.368,8.712 4.104,11.16 2.736,2.52 6.624,3.744 11.736,3.744 1.872,0 3.6,-0.144 5.256,-0.576 1.656,-0.36 3.096,-0.936 4.248,-1.656 z" stroke-width="0" stroke-linejoin="miter" stroke-miterlimit="2" fill="#5061f5" stroke="#5061f5" transform="translate(0 302.1395) translate(280.21113 2.264000000000003) scale(2) translate(-415.25675 47.736)"></path>
        <path id="path756390" style="font-style:normal;font-weight:800;font-size:72px;line-height:1;font-family:'Montserrat ExtraBold Alt1';font-variant-ligatures:none;text-align:center;text-anchor:middle" d="m 490.11088,-16.056 c 0.14399,-2.16 0.21599,-3.24 0.21599,-3.384 0,-4.176 -0.936,-7.776 -2.808,-10.8 -1.87199,-3.024 -4.32,-5.4 -7.488,-6.984 -3.168,-1.584 -6.696,-2.448 -10.584,-2.448 -4.104,0 -7.77599,0.864 -11.01599,2.592 -3.31201,1.728 -5.832,4.176 -7.70401,7.2 -1.872,3.024 -2.73599,6.48 -2.73599,10.296 0,3.888 0.93599,7.416 2.80799,10.44 1.87201,3.096 4.60801,5.472 8.064,7.2 3.456,1.728 7.41601,2.592 12.02401,2.592 7.272,0 12.81599,-2.088 16.63199,-6.336 l -7.2,-7.488 c -1.44,1.224 -2.808,2.088 -4.176,2.592 -1.368,0.576 -2.952,0.792 -4.824,0.792 -2.52,0 -4.608,-0.504 -6.264,-1.584 -1.656,-1.08 -2.736,-2.664 -3.31199,-4.68 z m -25.92001,-12.096 c 1.44,-1.152 3.168,-1.8 5.328,-1.8 2.088,0 3.816,0.648 5.256,1.8 1.44,1.224 2.304,2.88 2.736,4.896 h -15.98399 c 0.35999,-2.016 1.22399,-3.672 2.66399,-4.896 z" stroke-width="0" stroke-linejoin="miter" stroke-miterlimit="2" fill="#5061f5" stroke="#5061f5" transform="translate(0 302.1395) translate(365.67939000000007 18.392000000000003) scale(2) translate(-447.99088 39.672)"></path>
        <path id="path756392" style="font-style:normal;font-weight:800;font-size:72px;line-height:1;font-family:'Montserrat ExtraBold Alt1';font-variant-ligatures:none;text-align:center;text-anchor:middle" d="m 501.2405,-0.432 c 3.168,0.72 6.336,1.08 9.648,1.08 4.032,0 7.56,-0.504 10.44,-1.656 2.88,-1.08 5.112,-2.592 6.624,-4.536 1.44,-1.944 2.232,-4.176 2.232,-6.624 0,-2.952 -0.792,-5.256 -2.376,-6.912 -1.584,-1.656 -3.384,-2.808 -5.472,-3.456 -2.16,-0.576 -4.824,-1.152 -7.992,-1.656 -2.592,-0.36 -4.392,-0.72 -5.472,-1.08 -1.152,-0.36 -1.656,-1.008 -1.656,-1.944 0,-0.792 0.504,-1.44 1.512,-1.944 1.008,-0.504 2.592,-0.792 4.752,-0.792 4.032,0 7.776,1.008 11.232,2.88 l 4.104,-9.288 c -1.872,-1.008 -4.248,-1.872 -6.984,-2.448 -2.808,-0.576 -5.616,-0.864 -8.424,-0.864 -4.032,0 -7.416,0.576 -10.296,1.728 -2.88,1.152 -5.04,2.664 -6.48,4.608 -1.512,1.944 -2.232,4.176 -2.232,6.624 0,3.024 0.792,5.4 2.376,7.056 1.584,1.728 3.456,2.88 5.616,3.456 2.16,0.648 4.824,1.152 7.992,1.512 2.448,0.36 4.176,0.72 5.328,1.08 1.152,0.36 1.728,0.936 1.728,1.8 0,0.864 -0.504,1.584 -1.44,2.016 -0.936,0.432 -2.52,0.648 -4.68,0.648 -2.448,0 -4.824,-0.288 -7.272,-0.936 -2.448,-0.648 -4.608,-1.512 -6.336,-2.664 l -4.104,9.36 c 1.872,1.224 4.464,2.232 7.632,2.952 z" stroke-width="0" stroke-linejoin="miter" stroke-miterlimit="2" fill="#5061f5" stroke="#5061f5" transform="translate(0 302.1395) translate(476.9146300000001 18.392000000000003) scale(2) translate(-493.6085 39.672)"></path>
        <path id="path756394" style="font-style:normal;font-weight:800;font-size:72px;line-height:1;font-family:'Montserrat ExtraBold Alt1';font-variant-ligatures:none;text-align:center;text-anchor:middle" d="m 563.0075,-1.584 -3.384,-9.576 c -1.224,0.864 -2.592,1.224 -4.176,1.224 -1.296,0 -2.304,-0.36 -3.024,-1.152 -0.72,-0.792 -1.08,-1.872 -1.08,-3.312 v -12.96 h 8.928 v -10.224 h -8.928 v -10.152 h -13.68 v 10.152 h -5.688 v 10.224 h 5.688 v 13.104 c 0,4.968 1.368,8.712 4.104,11.16 2.736,2.52 6.624,3.744 11.736,3.744 1.872,0 3.6,-0.144 5.256,-0.576 1.656,-0.36 3.096,-0.936 4.248,-1.656 z" stroke-width="0" stroke-linejoin="miter" stroke-miterlimit="2" fill="#5061f5" stroke="#5061f5" transform="translate(0 302.1395) translate(573.6486300000003 2.264000000000003) scale(2) translate(-531.9755 47.736)"></path>
        <path id="path756396" style="font-style:normal;font-weight:800;font-size:72px;line-height:1;font-family:'Montserrat ExtraBold Alt1';font-variant-ligatures:none;text-align:center;text-anchor:middle" d="m 606.82962,-16.056 c 0.144,-2.16 0.216,-3.24 0.216,-3.384 0,-4.176 -0.93599,-7.776 -2.808,-10.8 -1.87199,-3.024 -4.31999,-5.4 -7.48799,-6.984 -3.168,-1.584 -6.69601,-2.448 -10.58401,-2.448 -4.10399,0 -7.77599,0.864 -11.01599,2.592 -3.31201,1.728 -5.832,4.176 -7.70401,7.2 -1.872,3.024 -2.736,6.48 -2.736,10.296 0,3.888 0.936,7.416 2.808,10.44 1.87201,3.096 4.60801,5.472 8.06401,7.2 3.456,1.728 7.41599,2.592 12.024,2.592 7.27199,0 12.81599,-2.088 16.63199,-6.336 l -7.19999,-7.488 c -1.44001,1.224 -2.80801,2.088 -4.17601,2.592 -1.368,0.576 -2.952,0.792 -4.82399,0.792 -2.52001,0 -4.60801,-0.504 -6.264,-1.584 -1.65601,-1.08 -2.736,-2.664 -3.312,-4.68 z m -25.92,-12.096 c 1.44001,-1.152 3.168,-1.8 5.328,-1.8 2.088,0 3.816,0.648 5.256,1.8 1.44,1.224 2.30401,2.88 2.736,4.896 h -15.98399 c 0.36,-2.016 1.22399,-3.672 2.66399,-4.896 z" stroke-width="0" stroke-linejoin="miter" stroke-miterlimit="2" fill="#5061f5" stroke="#5061f5" transform="translate(0 302.1395) translate(659.1168700000001 18.392000000000003) scale(2) translate(-564.70962 39.672)"></path>
      </g>
      <image xlink:href="" id="icon" x="0" y="0" style="display: none;"></image>
    </g>
  </g>
</svg>