<svg width="55" height="71" viewBox="0 0 55 71" fill="none" xmlns="http://www.w3.org/2000/svg">
<g clip-path="url(#clip0_601_1040)">
<path d="M54.72 70.2L36.18 43.74C39.87 42.39 42.93 40.41 45.18 37.71C48.51 33.93 50.13 28.98 50.13 22.95C50.13 16.2 48.06 10.62 44.19 6.57C42.12 4.41 39.51 2.79 36.45 1.71C33.39 0.54 29.79 0 25.83 0H0V70.2H14.13V13.41H24.75C28.35 13.41 31.23 14.22 33.03 15.84C34.83 17.37 35.73 19.71 35.73 22.77C35.73 25.74 34.83 27.99 33.12 29.61C31.14 31.5 27.9 32.4 23.67 32.4H20.97V46.08L37.71 70.2H54.72Z" fill="#2E4382"/>
</g>
<defs>
<clipPath id="clip0_601_1040">
<rect width="55" height="70.83" fill="white"/>
</clipPath>
</defs>
</svg>
