<svg width="469" height="71" viewBox="0 0 469 71" fill="none" xmlns="http://www.w3.org/2000/svg">
<g clip-path="url(#clip0_601_1001)">
<path d="M54.72 70.2L36.18 43.74C39.87 42.39 42.93 40.41 45.18 37.71C48.51 33.93 50.13 28.98 50.13 22.95C50.13 16.2 48.06 10.62 44.19 6.57C42.12 4.41 39.51 2.79 36.45 1.71C33.39 0.54 29.79 0 25.83 0H0V70.2H14.13V13.41H24.75C28.35 13.41 31.23 14.22 33.03 15.84C34.83 17.37 35.73 19.71 35.73 22.77C35.73 25.74 34.83 27.99 33.12 29.61C31.14 31.5 27.9 32.4 23.67 32.4H20.97V46.08L37.71 70.2H54.72Z" fill="#2E4382"/>
<path d="M84.7042 70.47C88.3042 70.47 91.7242 69.7501 94.9642 68.4001C98.0242 66.9601 100.814 65.07 103.154 62.55L93.7042 53.55C91.3642 56.07 88.1242 57.42 84.7042 57.42C80.2942 57.42 76.5142 55.17 74.2642 51.66H110.084V45.18C110.084 38.34 107.474 32.04 102.614 27.18C97.8442 22.41 91.4542 19.8 84.7042 19.8C77.9542 19.8 71.5642 22.41 66.7942 27.18C62.0242 32.04 59.3242 38.34 59.3242 45.18C59.3242 51.93 62.0242 58.32 66.7942 63.09C71.5642 67.86 77.9542 70.47 84.7042 70.47ZM95.1442 38.61H74.2642C76.5142 35.19 80.2942 32.85 84.7042 32.85C89.1142 32.85 92.9842 35.19 95.1442 38.61Z" fill="#2E4382"/>
<path d="M187.491 26.64C183.351 22.5 177.951 20.25 172.191 20.25C166.521 20.25 161.301 22.41 157.251 26.19C153.201 22.41 147.981 20.25 142.401 20.25C139.521 20.25 136.731 20.79 134.211 21.87V19.53H120.711V70.2H134.211V41.94C134.211 37.44 137.901 33.75 142.401 33.75C146.811 33.75 150.501 37.44 150.501 41.94V70.2H164.001V41.94C164.001 37.44 167.691 33.75 172.191 33.75C176.601 33.75 180.291 37.44 180.291 41.94V70.2H193.791V41.94C193.791 36.18 191.541 30.69 187.491 26.64Z" fill="#2E4382"/>
<path d="M229.168 70.7401C235.108 70.7401 240.778 68.4001 245.008 64.1701C249.328 59.9401 251.668 54.2701 251.668 48.2401V20.0701H238.168V48.2401C238.168 53.2801 234.118 57.2401 229.168 57.2401C224.128 57.2401 220.168 53.2801 220.168 48.2401V20.0701H206.668V48.2401C206.668 54.2701 209.008 59.9401 213.238 64.1701C217.468 68.4001 223.138 70.7401 229.168 70.7401Z" fill="#2E4382"/>
<path d="M304.575 27.54C300.345 23.22 294.585 20.88 288.555 20.88C285.405 20.88 282.255 21.51 279.465 22.77V19.53H265.965V41.58C265.875 42.21 265.875 42.93 265.875 43.56H265.965V70.2H279.465V42.3C280.095 37.8 283.965 34.38 288.555 34.38C293.595 34.38 297.735 38.52 297.735 43.56V70.2H311.235V43.56C311.235 37.53 308.895 31.86 304.575 27.54Z" fill="#2E4382"/>
<path d="M346.56 70.47C350.16 70.47 353.58 69.7501 356.82 68.4001C359.88 66.9601 362.67 65.07 365.01 62.55L355.56 53.55C353.22 56.07 349.98 57.42 346.56 57.42C342.15 57.42 338.37 55.17 336.12 51.66H371.94V45.18C371.94 38.34 369.33 32.04 364.47 27.18C359.7 22.41 353.31 19.8 346.56 19.8C339.81 19.8 333.42 22.41 328.65 27.18C323.88 32.04 321.18 38.34 321.18 45.18C321.18 51.93 323.88 58.32 328.65 63.09C333.42 67.86 339.81 70.47 346.56 70.47ZM357 38.61H336.12C338.37 35.19 342.15 32.85 346.56 32.85C350.97 32.85 354.84 35.19 357 38.61Z" fill="#2E4382"/>
<path d="M382.477 48.0601V70.2001H395.977V48.0601C395.977 39.3301 403.087 32.3101 411.727 32.3101V18.8101C407.767 18.8101 403.987 19.5301 400.387 21.0601C396.877 22.5901 393.727 24.6601 391.117 27.3601C388.417 30.0601 386.256 33.2101 384.816 36.6301C383.286 40.2301 382.477 44.1001 382.477 48.0601Z" fill="#2E4382"/>
<path d="M468.174 19.53H454.674V22.32C451.164 20.52 447.204 19.53 443.154 19.53C439.644 19.53 436.314 20.25 433.164 21.6C430.104 22.86 427.314 24.75 424.974 27.09C422.634 29.43 420.744 32.13 419.484 35.19C418.134 38.43 417.504 41.76 417.504 45.18C417.504 48.69 418.134 52.02 419.484 55.17C420.744 58.23 422.634 61.02 424.974 63.36C427.314 65.7 430.104 67.59 433.164 68.85C436.314 70.2 439.644 70.83 443.154 70.83C447.114 70.83 451.164 69.93 454.674 68.13V70.2H468.174V19.53ZM449.274 55.71C447.384 56.79 445.314 57.33 443.154 57.33C436.404 57.33 431.004 51.93 431.004 45.18C431.004 38.52 436.404 33.03 443.154 33.03C445.494 33.03 447.744 33.75 449.724 35.01C451.614 36.27 453.144 37.98 454.134 40.05C454.854 41.67 455.214 43.38 455.214 45.27C455.214 47.34 454.674 49.5 453.594 51.3C452.604 53.1 451.074 54.63 449.274 55.71Z" fill="#2E4382"/>
</g>
<defs>
<clipPath id="clip0_601_1001">
<rect width="468.175" height="70.83" fill="white"/>
</clipPath>
</defs>
</svg>
